<svg width="64" height="62" viewBox="0 0 64 62" fill="none" xmlns="http://www.w3.org/2000/svg">
<g filter="url(#filter0_d)">
<circle r="24.2756" transform="matrix(-1 0 0 1 31.8791 31.3059)" fill="#6AFF52"/>
</g>
<path d="M13.1071 55.4466C12.6661 56.0153 11.8456 56.1209 11.2956 55.6568C6.61466 51.7074 3.17682 46.4735 1.41607 40.588C-0.469387 34.2856 -0.337482 27.5516 1.79333 21.3279C3.92414 15.1043 7.94724 9.70249 13.2997 5.87828C18.6523 2.05406 25.0664 -0.00122152 31.6447 5.44349e-07C38.223 0.00122261 44.6363 2.05888 49.9874 5.88509C55.3385 9.7113 59.3596 15.1146 61.4881 21.339C63.6166 27.5635 63.746 34.2976 61.8582 40.5992C60.0952 46.484 56.6555 51.7167 51.9731 55.6644C51.4228 56.1283 50.6024 56.0224 50.1616 55.4535C49.7209 54.8846 49.8269 54.0683 50.3754 53.6024C54.629 49.989 57.7547 45.2155 59.3617 39.8513C61.0935 34.0703 60.9748 27.8925 59.0221 22.1823C57.0695 16.4721 53.3806 11.5151 48.4716 8.00503C43.5626 4.49491 37.679 2.60724 31.6442 2.60612C25.6093 2.605 19.7251 4.49048 14.8148 7.99877C9.90446 11.5071 6.21371 16.4626 4.25894 22.1721C2.30416 27.8816 2.18315 34.0593 3.91285 39.841C5.51782 45.2058 8.64173 49.9805 12.894 53.5954C13.4423 54.0615 13.5481 54.8779 13.1071 55.4466Z" fill="white" fill-opacity="0.2"/>
<defs>
<filter id="filter0_d" x="1.60352" y="1.0303" width="60.5512" height="60.5512" filterUnits="userSpaceOnUse" color-interpolation-filters="sRGB">
<feFlood flood-opacity="0" result="BackgroundImageFix"/>
<feColorMatrix in="SourceAlpha" type="matrix" values="0 0 0 0 0 0 0 0 0 0 0 0 0 0 0 0 0 0 127 0"/>
<feMorphology radius="1" operator="erode" in="SourceAlpha" result="effect1_dropShadow"/>
<feOffset/>
<feGaussianBlur stdDeviation="3.5"/>
<feColorMatrix type="matrix" values="0 0 0 0 0.415686 0 0 0 0 1 0 0 0 0 0.321569 0 0 0 1 0"/>
<feBlend mode="normal" in2="BackgroundImageFix" result="effect1_dropShadow"/>
<feBlend mode="normal" in="SourceGraphic" in2="effect1_dropShadow" result="shape"/>
</filter>
</defs>
</svg>
