<svg width="64" height="62" viewBox="0 0 64 62" fill="none" xmlns="http://www.w3.org/2000/svg">
<g filter="url(#filter0_d)">
<circle r="24.2756" transform="matrix(-1 0 0 1 31.9717 31.3059)" fill="#FF7152"/>
</g>
<path d="M13.1996 55.4466C12.7587 56.0153 11.9382 56.1209 11.3881 55.6568C6.70719 51.7074 3.26935 46.4735 1.50859 40.588C-0.376858 34.2856 -0.244953 27.5516 1.88586 21.3279C4.01667 15.1043 8.03977 9.70249 13.3923 5.87828C18.7448 2.05406 25.1589 -0.00122152 31.7372 5.44349e-07C38.3155 0.00122261 44.7288 2.05888 50.0799 5.88509C55.431 9.7113 59.4521 15.1146 61.5806 21.339C63.7091 27.5635 63.8385 34.2976 61.9507 40.5992C60.1878 46.484 56.748 51.7167 52.0656 55.6644C51.5154 56.1283 50.6949 56.0224 50.2542 55.4535C49.8134 54.8846 49.9194 54.0683 50.4679 53.6024C54.7216 49.989 57.8472 45.2155 59.4542 39.8513C61.186 34.0703 61.0673 27.8925 59.1147 22.1823C57.162 16.4721 53.4731 11.5151 48.5641 8.00503C43.6551 4.49491 37.7716 2.60724 31.7367 2.60612C25.7019 2.605 19.8176 4.49048 14.9073 7.99877C9.99699 11.5071 6.30624 16.4626 4.35147 22.1721C2.39669 27.8816 2.27568 34.0593 4.00537 39.841C5.61035 45.2058 8.73426 49.9805 12.9866 53.5954C13.5349 54.0615 13.6406 54.8779 13.1996 55.4466Z" fill="white" fill-opacity="0.2"/>
<defs>
<filter id="filter0_d" x="1.69611" y="1.0303" width="60.5512" height="60.5512" filterUnits="userSpaceOnUse" color-interpolation-filters="sRGB">
<feFlood flood-opacity="0" result="BackgroundImageFix"/>
<feColorMatrix in="SourceAlpha" type="matrix" values="0 0 0 0 0 0 0 0 0 0 0 0 0 0 0 0 0 0 127 0"/>
<feMorphology radius="1" operator="erode" in="SourceAlpha" result="effect1_dropShadow"/>
<feOffset/>
<feGaussianBlur stdDeviation="3.5"/>
<feColorMatrix type="matrix" values="0 0 0 0 1 0 0 0 0 0.443137 0 0 0 0 0.321569 0 0 0 1 0"/>
<feBlend mode="normal" in2="BackgroundImageFix" result="effect1_dropShadow"/>
<feBlend mode="normal" in="SourceGraphic" in2="effect1_dropShadow" result="shape"/>
</filter>
</defs>
</svg>
