<svg width="77" height="67" viewBox="0 0 77 67" fill="none" xmlns="http://www.w3.org/2000/svg">
<path d="M67.0365 29.139C67.0365 13.2185 54.1304 0.312382 38.2099 0.312382C22.2894 0.312382 9.38324 13.2185 9.38324 29.139C9.38324 45.0595 22.2894 57.9656 38.2099 57.9656C54.1304 57.9656 67.0365 45.0595 67.0365 29.139ZM11.4272 29.139C11.4272 14.3474 23.4182 2.35636 38.2099 2.35636C53.0015 2.35636 64.9925 14.3474 64.9925 29.139C64.9925 43.9307 53.0015 55.9217 38.2099 55.9217C23.4182 55.9217 11.4272 43.9307 11.4272 29.139Z" fill="white" fill-opacity="0.2"/>
<g filter="url(#filter0_d)">
<path d="M18.0057 8.93496C16.7216 7.65084 14.6244 7.6412 13.4794 9.05077C10.2205 13.0628 7.97575 17.8215 6.96096 22.9232C5.73159 29.1036 6.36255 35.5098 8.77403 41.3317C11.1855 47.1535 15.2692 52.1295 20.5087 55.6305C25.7483 59.1314 31.9083 61 38.2098 61C44.5113 61 50.6713 59.1314 55.9108 55.6305C61.1503 52.1295 65.234 47.1535 67.6455 41.3317C70.057 35.5098 70.6879 29.1036 69.4586 22.9232C68.4438 17.8215 66.199 13.0628 62.9401 9.05077C61.7951 7.6412 59.6979 7.65084 58.4138 8.93496C57.1297 10.2191 57.1496 12.2898 58.2563 13.7296C60.6154 16.7987 62.2477 20.3809 63.0086 24.2062C63.9842 29.1109 63.4835 34.1948 61.5697 38.815C59.656 43.4352 56.4152 47.3841 52.2572 50.1624C48.0991 52.9407 43.2106 54.4236 38.2098 54.4236C33.2089 54.4236 28.3204 52.9407 24.1624 50.1624C20.0043 47.3841 16.7635 43.4352 14.8498 38.815C12.9361 34.1948 12.4354 29.1109 13.411 24.2062C14.1719 20.381 15.8041 16.7987 18.1632 13.7296C19.2699 12.2898 19.2898 10.2191 18.0057 8.93496Z" fill="#FFD952"/>
</g>
<defs>
<filter id="filter0_d" x="0.348755" y="1.98236" width="75.722" height="65.0177" filterUnits="userSpaceOnUse" color-interpolation-filters="sRGB">
<feFlood flood-opacity="0" result="BackgroundImageFix"/>
<feColorMatrix in="SourceAlpha" type="matrix" values="0 0 0 0 0 0 0 0 0 0 0 0 0 0 0 0 0 0 127 0"/>
<feMorphology radius="1" operator="erode" in="SourceAlpha" result="effect1_dropShadow"/>
<feOffset/>
<feGaussianBlur stdDeviation="3.5"/>
<feColorMatrix type="matrix" values="0 0 0 0 1 0 0 0 0 0.85098 0 0 0 0 0.321569 0 0 0 1 0"/>
<feBlend mode="normal" in2="BackgroundImageFix" result="effect1_dropShadow"/>
<feBlend mode="normal" in="SourceGraphic" in2="effect1_dropShadow" result="shape"/>
</filter>
</defs>
</svg>
