<svg width="225" height="44" viewBox="0 0 225 44" fill="none" xmlns="http://www.w3.org/2000/svg">
<path d="M57.796 11.4841C59.2 11.0161 59.74 10.0981 59.74 8.71208C59.74 6.46208 58.372 5.14808 56.284 5.14808C54.052 5.14808 52.846 6.64208 52.702 8.91008H54.178C54.286 7.47008 54.88 6.57008 56.284 6.57008C57.544 6.57008 58.264 7.34408 58.264 8.65808C58.264 10.1881 57.328 10.8541 55.942 10.8541H55.096V12.1861H56.086C57.508 12.1861 58.552 12.9781 58.552 14.5261C58.552 15.9481 57.616 16.8121 56.302 16.8121C54.862 16.8121 54.088 15.8221 54.016 14.5081H52.522C52.612 16.6321 54.016 18.2341 56.32 18.2341C58.462 18.2341 60.046 16.8661 60.046 14.5621C60.046 13.0681 59.434 11.9161 57.796 11.4841ZM67.1862 18.0001H68.7342L65.4942 5.40008H63.8922L60.6522 18.0001H62.2002L62.8662 15.2641H66.5202L67.1862 18.0001ZM63.1902 13.8961L64.2162 9.63008C64.4142 8.82008 64.5942 7.75808 64.6662 7.27208H64.7202C64.7922 7.75808 64.9722 8.82008 65.1702 9.63008L66.1962 13.8961H63.1902ZM79.9446 18.0001H81.6546L77.4246 11.1781L81.3486 5.40008H79.6386L77.0286 9.41408L75.9846 11.1061V5.40008H74.5626V11.1061L73.5906 9.50408L70.9086 5.40008H69.1986L73.1046 11.1781L68.8926 18.0001H70.6026L73.9506 12.4201L74.5626 13.3201V18.0001H75.9846V13.3021L76.5786 12.4201L79.9446 18.0001ZM82.9331 18.0001H84.4811L87.9371 10.1701C88.1891 9.59408 88.5491 8.65808 88.7291 8.19008L88.7651 8.22608C88.7291 9.00008 88.6931 10.3861 88.6931 11.1421V18.0001H90.1511V5.40008H88.5671L85.2191 13.0321C84.8771 13.7701 84.5351 14.6521 84.3371 15.1741L84.2831 15.1381C84.3551 14.2741 84.3911 12.8701 84.3911 12.1141V5.40008H82.9331V18.0001ZM100.679 5.40008L98.5009 10.6741C98.1949 11.4301 97.7449 12.6721 97.5289 13.3201H97.4569C97.2589 12.6721 96.8089 11.4301 96.5029 10.6741L94.3249 5.40008H92.7769V18.0001H94.2349V12.2221C94.2349 10.8541 94.1809 9.63008 94.1089 8.40608L94.1989 8.38808C94.5229 9.34208 95.0089 10.5121 95.4409 11.7001L96.7729 15.1021H98.2309L99.5449 11.7001C99.9949 10.5121 100.463 9.34208 100.805 8.38808L100.877 8.40608C100.805 9.63008 100.769 10.8541 100.751 12.2221V18.0001H102.209V5.40008H100.679ZM110.235 18.0001H111.783L108.543 5.40008H106.941L103.701 18.0001H105.249L105.915 15.2641H109.569L110.235 18.0001ZM106.239 13.8961L107.265 9.63008C107.463 8.82008 107.643 7.75808 107.715 7.27208H107.769C107.841 7.75808 108.021 8.82008 108.219 9.63008L109.245 13.8961H106.239ZM116.909 4.19408C118.151 4.19408 118.943 3.42008 118.997 2.07008H117.899C117.863 2.77208 117.539 3.13208 116.891 3.13208C116.261 3.13208 115.937 2.77208 115.883 2.07008H114.803C114.857 3.42008 115.649 4.19408 116.909 4.19408ZM113.255 18.0001H114.803L118.259 10.1701C118.511 9.59408 118.871 8.65808 119.051 8.19008L119.087 8.22608C119.051 9.00008 119.015 10.3861 119.015 11.1421V18.0001H120.473V5.40008H118.889L115.541 13.0321C115.199 13.7701 114.857 14.6521 114.659 15.1741L114.605 15.1381C114.677 14.2741 114.713 12.8701 114.713 12.1141V5.40008H113.255V18.0001ZM128.985 5.40008H122.091V6.78608H124.791V18.0001H126.285V6.78608H128.985V5.40008ZM132.028 16.6141V12.2761H136.258V10.9261H132.028V6.76808H136.582V5.40008H130.552V18.0001H136.78V16.6141H132.028ZM143.399 5.40008C143.201 10.5481 143.021 13.7341 142.841 15.0661C142.679 16.2001 142.283 16.7941 141.473 16.7941V18.1801C143.057 18.1801 143.993 17.3161 144.263 15.3541C144.479 13.8241 144.641 10.6021 144.821 6.78608H147.755V18.0001H149.231V5.40008H143.399ZM157.707 18.0001H159.417L155.097 10.8901L158.913 5.40008H157.131L154.287 9.64808L153.351 11.1601V5.40008H151.875V18.0001H153.351V13.4281L154.215 12.1681L157.707 18.0001ZM168.601 5.40008L166.423 10.6741C166.117 11.4301 165.667 12.6721 165.451 13.3201H165.379C165.181 12.6721 164.731 11.4301 164.425 10.6741L162.247 5.40008H160.699V18.0001H162.157V12.2221C162.157 10.8541 162.103 9.63008 162.031 8.40608L162.121 8.38808C162.445 9.34208 162.931 10.5121 163.363 11.7001L164.695 15.1021H166.153L167.467 11.7001C167.917 10.5121 168.385 9.34208 168.727 8.38808L168.799 8.40608C168.727 9.63008 168.691 10.8541 168.673 12.2221V18.0001H170.131V5.40008H168.601ZM172.343 16.3981L171.965 20.3941H172.883L173.819 16.3981H172.343ZM184.526 5.40008V11.8261C183.932 12.0781 183.41 12.1681 182.852 12.1681C181.376 12.1681 180.494 11.3581 180.494 9.66608V5.40008H179.018V9.64808C179.018 12.1501 180.458 13.5541 182.744 13.5541C183.32 13.5541 183.968 13.4281 184.526 13.2121V18.0181H186.002V5.40008H184.526ZM194.516 5.40008H187.622V6.78608H190.322V18.0001H191.816V6.78608H194.516V5.40008ZM199.538 18.2341C201.878 18.2341 203.264 16.6321 203.264 14.0401V9.34208C203.264 6.76808 201.878 5.16608 199.538 5.16608C197.198 5.16608 195.794 6.76808 195.794 9.34208V14.0401C195.794 16.6321 197.198 18.2341 199.538 18.2341ZM199.538 16.7941C198.062 16.7941 197.306 15.8041 197.306 14.0401V9.34208C197.306 7.59608 198.062 6.60608 199.538 6.60608C200.996 6.60608 201.752 7.59608 201.752 9.34208V14.0401C201.752 15.8041 200.996 16.7941 199.538 16.7941ZM208.888 10.4401H207.052V6.78608H211.912V5.40008H205.558V18.0001H208.888C211.174 18.0001 212.596 16.6321 212.596 14.1841C212.596 11.8621 211.174 10.4401 208.888 10.4401ZM208.834 16.6141H207.052V11.8081H208.834C210.184 11.8081 211.084 12.6001 211.084 14.1841C211.084 15.8041 210.184 16.6141 208.834 16.6141ZM214.488 18.0001H217.53C219.906 18.0001 221.292 16.6501 221.292 14.2561C221.292 11.9701 219.906 10.5481 217.53 10.5481H216V5.40008H214.488V18.0001ZM222.912 18.0001H224.388V5.40008H222.912V18.0001ZM216 16.6141V11.9521H217.476C218.898 11.9521 219.762 12.7261 219.762 14.2561C219.762 15.8221 218.898 16.6141 217.476 16.6141H216ZM60.154 38.6141V27.4001H54.448L54.232 33.8621C54.16 35.9861 53.656 37.7861 52.828 38.6141H52.108V42.0881H53.548V40.0001H59.812V42.0881H61.252V38.6141H60.154ZM58.678 38.6141H54.61C55.204 37.6061 55.564 36.1661 55.636 34.2761L55.834 28.7861H58.678V38.6141ZM68.112 33.5021C68.976 33.1061 69.534 32.1161 69.534 30.7481C69.534 28.6421 68.256 27.4001 66.186 27.4001H62.982V40.0001H66.42C68.634 40.0001 70.02 38.7221 70.02 36.4721C70.02 34.9601 69.3 33.8801 68.112 33.5021ZM66.078 28.7861C67.392 28.7861 68.022 29.4161 68.022 30.7841C68.022 32.1521 67.392 32.8721 66.114 32.8721H64.458V28.7861H66.078ZM66.294 38.6141H64.458V34.2581H66.168C67.59 34.2581 68.526 35.0141 68.526 36.4721C68.526 37.9481 67.788 38.6141 66.294 38.6141ZM71.8062 40.0001H73.3542L76.8102 32.1701C77.0622 31.5941 77.4222 30.6581 77.6022 30.1901L77.6382 30.2261C77.6022 31.0001 77.5662 32.3861 77.5662 33.1421V40.0001H79.0242V27.4001H77.4402L74.0922 35.0321C73.7502 35.7701 73.4082 36.6521 73.2102 37.1741L73.1562 37.1381C73.2282 36.2741 73.2642 34.8701 73.2642 34.1141V27.4001H71.8062V40.0001ZM87.5539 27.4001H81.6499V40.0001H83.1259V28.7861H87.5539V27.4001ZM93.5886 40.0001H95.1366L91.8966 27.4001H90.2946L87.0546 40.0001H88.6026L89.2686 37.2641H92.9226L93.5886 40.0001ZM89.5926 35.8961L90.6186 31.6301C90.8166 30.8201 90.9966 29.7581 91.0686 29.2721H91.1226C91.1946 29.7581 91.3746 30.8201 91.5726 31.6301L92.5986 35.8961H89.5926ZM101.845 27.4001H94.9505V28.7861H97.6505V40.0001H99.1445V28.7861H101.845V27.4001ZM103.412 40.0001H106.724C109.01 40.0001 110.396 38.6501 110.396 36.2381C110.396 33.9701 109.01 32.5301 106.724 32.5301H104.906V27.4001H103.412V40.0001ZM104.906 38.6321V33.9341H106.67C108.002 33.9341 108.884 34.7081 108.884 36.2381C108.884 37.8221 108.002 38.6321 106.67 38.6321H104.906ZM123.051 27.4001H116.085V40.0001H117.561V28.7861H121.575V40.0001H123.051V27.4001ZM128.869 27.4001H125.683V40.0001H127.159V35.4101H128.869C131.263 35.4101 132.613 33.9881 132.613 31.3781C132.613 28.8401 131.263 27.4001 128.869 27.4001ZM128.869 34.0061H127.159V28.8041H128.869C130.381 28.8041 131.119 29.6681 131.119 31.3781C131.119 33.1781 130.381 34.0061 128.869 34.0061ZM137.927 40.2341C140.267 40.2341 141.653 38.6321 141.653 36.0401V31.3421C141.653 28.7681 140.267 27.1661 137.927 27.1661C135.587 27.1661 134.183 28.7681 134.183 31.3421V36.0401C134.183 38.6321 135.587 40.2341 137.927 40.2341ZM137.927 38.7941C136.451 38.7941 135.695 37.8041 135.695 36.0401V31.3421C135.695 29.5961 136.451 28.6061 137.927 28.6061C139.385 28.6061 140.141 29.5961 140.141 31.3421V36.0401C140.141 37.8041 139.385 38.7941 137.927 38.7941ZM149.077 33.5021C149.941 33.1061 150.499 32.1161 150.499 30.7481C150.499 28.6421 149.221 27.4001 147.151 27.4001H143.947V40.0001H147.385C149.599 40.0001 150.985 38.7221 150.985 36.4721C150.985 34.9601 150.265 33.8801 149.077 33.5021ZM147.043 28.7861C148.357 28.7861 148.987 29.4161 148.987 30.7841C148.987 32.1521 148.357 32.8721 147.079 32.8721H145.423V28.7861H147.043ZM147.259 38.6141H145.423V34.2581H147.133C148.555 34.2581 149.491 35.0141 149.491 36.4721C149.491 37.9481 148.753 38.6141 147.259 38.6141ZM156.349 40.2341C158.689 40.2341 160.075 38.6321 160.075 36.0401V31.3421C160.075 28.7681 158.689 27.1661 156.349 27.1661C154.009 27.1661 152.605 28.7681 152.605 31.3421V36.0401C152.605 38.6321 154.009 40.2341 156.349 40.2341ZM156.349 38.7941C154.873 38.7941 154.117 37.8041 154.117 36.0401V31.3421C154.117 29.5961 154.873 28.6061 156.349 28.6061C157.807 28.6061 158.563 29.5961 158.563 31.3421V36.0401C158.563 37.8041 157.807 38.7941 156.349 38.7941ZM169.209 38.6141V27.4001H163.503L163.287 33.8621C163.215 35.9861 162.711 37.7861 161.883 38.6141H161.163V42.0881H162.603V40.0001H168.867V42.0881H170.307V38.6141H169.209ZM167.733 38.6141H163.665C164.259 37.6061 164.619 36.1661 164.691 34.2761L164.889 28.7861H167.733V38.6141ZM177.419 40.0001H178.967L175.727 27.4001H174.125L170.885 40.0001H172.433L173.099 37.2641H176.753L177.419 40.0001ZM173.423 35.8961L174.449 31.6301C174.647 30.8201 174.827 29.7581 174.899 29.2721H174.953C175.025 29.7581 175.205 30.8201 175.403 31.6301L176.429 35.8961H173.423Z" fill="white" fill-opacity="0.25"/>
<path d="M16 22.0001V2.00008H11.5L6.5 5.88897L2 13.1112V22.0001H16Z" fill="#FBFF44"/>
<path d="M16.0001 7.62939e-05C7.45749 7.62939e-05 0.507812 7.05898 0.507812 15.7351V28.2654C0.507812 36.9416 7.45749 44.0001 16.0001 44.0001C24.5422 44.0001 31.4924 36.963 31.4924 28.3136V15.7351C31.4924 7.05898 24.5422 7.62939e-05 16.0001 7.62939e-05ZM28.5784 28.3136C28.5784 35.3565 22.9361 41.0862 16.0001 41.0862C9.06452 41.0862 3.42178 35.3347 3.42178 28.265V15.7351C3.42178 8.6655 9.06452 2.91396 16.0001 2.91396C22.9362 2.91396 28.5784 8.6655 28.5784 15.7351V28.3136Z" fill="white"/>
<path d="M15.9999 12.0442C15.1952 12.0442 14.543 12.6965 14.543 13.5012V18.6006C14.543 19.4053 15.1952 20.0575 15.9999 20.0575C16.8047 20.0575 17.4569 19.4053 17.4569 18.6006V13.5012C17.4569 12.6965 16.8047 12.0442 15.9999 12.0442Z" fill="white"/>
</svg>
