<svg width="279" height="286" viewBox="0 0 279 286" fill="none" xmlns="http://www.w3.org/2000/svg">
<g filter="url(#filter0_d)">
<path d="M139.5 35C81.8752 35 35 81.8752 35 139.5C35 197.125 81.8752 244 139.5 244C197.125 244 244 197.117 244 139.5C244 81.8834 197.125 35 139.5 35ZM139.5 227.811C90.8116 227.811 51.1889 188.197 51.1889 139.5C51.1889 90.8034 90.8116 51.1889 139.5 51.1889C188.197 51.1889 227.811 90.8034 227.811 139.5C227.811 188.197 188.188 227.811 139.5 227.811Z" fill="white"/>
</g>
<path d="M187.444 103.156C184.149 100.161 179.025 100.395 176.015 103.706L126.638 158.077L102.783 133.826C99.6344 130.637 94.5188 130.588 91.3377 133.729C88.1484 136.861 88.0998 141.985 91.2405 145.174L121.101 175.529C122.631 177.083 124.703 177.949 126.872 177.949C126.921 177.949 126.977 177.949 127.026 177.957C129.26 177.909 131.365 176.953 132.862 175.302L187.994 114.593C190.997 111.274 190.754 106.159 187.444 103.156Z" fill="#FBFF44"/>
<path d="M38.873 275.52C39.647 275.034 40.151 274.044 40.151 272.82C40.151 270.714 38.837 269.4 36.803 269.4H33.383V282H36.983C39.179 282 40.619 280.65 40.619 278.4C40.619 277.032 39.953 275.97 38.873 275.52ZM36.587 271.11C37.757 271.11 38.297 271.686 38.297 272.874C38.297 274.098 37.739 274.728 36.641 274.728H35.201V271.11H36.587ZM36.749 280.29H35.201V276.438H36.677C37.955 276.438 38.765 277.104 38.765 278.4C38.765 279.678 38.081 280.29 36.749 280.29ZM42.3303 282H45.4623C47.9643 282 49.2783 280.704 49.2783 278.22C49.2783 275.934 47.9643 274.44 45.4623 274.44H44.1843V269.4H42.3303V282ZM50.7723 282H52.5903V269.4H50.7723V282ZM44.1843 280.308V276.168H45.3723C46.6503 276.168 47.3883 276.852 47.3883 278.22C47.3883 279.624 46.6503 280.308 45.3723 280.308H44.1843ZM66.1592 269.4H58.9592V282H60.7772V271.128H64.3412V282H66.1592V269.4ZM71.9923 269.4H68.6623V282H70.4803V277.572H71.9923C74.4583 277.572 75.8623 276.114 75.8623 273.468C75.8623 270.894 74.4583 269.4 71.9923 269.4ZM71.9743 275.844H70.4803V271.128H71.9743C73.3423 271.128 74.0083 271.92 74.0083 273.468C74.0083 275.088 73.3423 275.844 71.9743 275.844ZM77.4163 282H79.2523L82.2943 275.106C82.6003 274.404 82.9603 273.432 83.1943 272.784L83.2483 272.82C83.1583 273.864 83.0863 275.556 83.0863 276.51V282H84.8683V269.4H83.0143L79.9543 276.348C79.6123 277.086 79.2883 277.968 79.0543 278.58L79.0003 278.544C79.1263 277.446 79.1983 275.808 79.1983 274.908V269.4H77.4163V282ZM90.713 269.4H87.383V282H89.201V277.572H90.713C93.179 277.572 94.583 276.114 94.583 273.468C94.583 270.894 93.179 269.4 90.713 269.4ZM90.695 275.844H89.201V271.128H90.695C92.063 271.128 92.729 271.92 92.729 273.468C92.729 275.088 92.063 275.844 90.695 275.844ZM99.8926 282.234C102.305 282.234 103.745 280.632 103.745 278.004V273.396C103.745 270.768 102.305 269.166 99.8926 269.166C97.4806 269.166 96.0406 270.768 96.0406 273.396V278.004C96.0406 280.632 97.4806 282.234 99.8926 282.234ZM99.8926 280.452C98.5786 280.452 97.9126 279.588 97.9126 278.004V273.396C97.9126 271.812 98.5786 270.948 99.8926 270.948C101.189 270.948 101.873 271.812 101.873 273.396V278.004C101.873 279.588 101.189 280.452 99.8926 280.452ZM114.98 282H117.032L113.018 275.124L116.726 269.4H114.638L112.316 273.234L111.398 274.872V269.4H109.634V274.854L108.77 273.288L106.394 269.4H104.306L108.014 275.124L104 282H106.052L109.022 276.654L109.634 277.608V282H111.398V277.608L112.01 276.654L114.98 282ZM125.575 280.29V269.4H119.509L119.293 275.484C119.221 277.464 118.789 279.354 117.871 280.29H117.133V284.106H118.915V282H124.909V284.106H126.691V280.29H125.575ZM123.775 280.29H120.049C120.643 279.228 120.967 277.77 121.039 275.988L121.219 271.11H123.775V280.29ZM130.105 280.29V276.438H134.119V274.764H130.105V271.11H134.461V269.4H128.287V282H134.641V280.29H130.105ZM141.966 269.4V274.764H138.402V269.4H136.584V282H138.402V276.474H141.966V282H143.784V269.4H141.966ZM151.687 269.4V274.764H148.123V269.4H146.305V282H148.123V276.474H151.687V282H153.505V269.4H151.687ZM156.026 282H159.158C161.66 282 162.974 280.704 162.974 278.22C162.974 275.934 161.66 274.44 159.158 274.44H157.88V269.4H156.026V282ZM164.468 282H166.286V269.4H164.468V282ZM157.88 280.308V276.168H159.068C160.346 276.168 161.084 276.852 161.084 278.22C161.084 279.624 160.346 280.308 159.068 280.308H157.88ZM172.567 268.176C173.809 268.176 174.673 267.402 174.727 266.016H173.485C173.449 266.646 173.107 266.97 172.549 266.97C172.009 266.97 171.667 266.646 171.631 266.016H170.389C170.443 267.384 171.307 268.176 172.567 268.176ZM168.787 282H170.623L173.665 275.106C173.971 274.404 174.331 273.432 174.565 272.784L174.619 272.82C174.529 273.864 174.457 275.556 174.457 276.51V282H176.239V269.4H174.385L171.325 276.348C170.983 277.086 170.659 277.968 170.425 278.58L170.371 278.544C170.497 277.446 170.569 275.808 170.569 274.908V269.4H168.787V282ZM185.681 269.166C183.395 269.166 182.045 270.534 181.937 273.036H183.737C183.845 271.56 184.493 270.894 185.699 270.894C186.761 270.894 187.463 271.596 187.463 273.108V274.818H184.241V276.384H187.463V278.292C187.463 279.786 186.761 280.488 185.663 280.488C184.439 280.488 183.791 279.804 183.665 278.364H181.865C181.991 280.848 183.341 282.216 185.663 282.216C187.877 282.216 189.317 280.83 189.317 278.292V273.108C189.317 270.552 187.895 269.166 185.681 269.166ZM192.183 269.4C191.967 274.602 191.805 277.428 191.607 278.742C191.409 280.038 191.013 280.524 190.221 280.524V282.18C191.967 282.18 193.029 281.442 193.353 279.156C193.587 277.662 193.749 274.782 193.929 271.11H196.593V282H198.411V269.4H192.183ZM202.756 280.29V276.438H206.77V274.764H202.756V271.11H207.112V269.4H200.938V282H207.292V280.29H202.756ZM214.941 282H217.029L212.907 274.89L216.507 269.4H214.383L211.863 273.396L211.035 274.872V269.4H209.235V282H211.035V277.734L211.863 276.492L214.941 282ZM224.425 269.4H217.333V271.128H219.943V282H221.797V271.128H224.425V269.4ZM229.211 269.4H225.881V282H227.699V277.572H229.211C231.677 277.572 233.081 276.114 233.081 273.468C233.081 270.894 231.677 269.4 229.211 269.4ZM229.193 275.844H227.699V271.128H229.193C230.561 271.128 231.227 271.92 231.227 273.468C231.227 275.088 230.561 275.844 229.193 275.844ZM234.635 282H236.471L239.513 275.106C239.819 274.404 240.179 273.432 240.413 272.784L240.467 272.82C240.377 273.864 240.305 275.556 240.305 276.51V282H242.087V269.4H240.233L237.173 276.348C236.831 277.086 236.507 277.968 236.273 278.58L236.219 278.544C236.345 277.446 236.417 275.808 236.417 274.908V269.4H234.635V282ZM250.308 282H252.396L248.274 274.89L251.874 269.4H249.75L247.23 273.396L246.402 274.872V269.4H244.602V282H246.402V277.734L247.23 276.492L250.308 282ZM253.763 278.994H255.509V269.4H253.763V278.994ZM254.645 282.198C255.293 282.198 255.725 281.766 255.725 281.1C255.725 280.452 255.293 280.02 254.645 280.02C253.979 280.02 253.547 280.452 253.547 281.1C253.547 281.766 253.979 282.198 254.645 282.198Z" fill="white"/>
<defs>
<filter id="filter0_d" x="0" y="0" width="279" height="279" filterUnits="userSpaceOnUse" color-interpolation-filters="sRGB">
<feFlood flood-opacity="0" result="BackgroundImageFix"/>
<feColorMatrix in="SourceAlpha" type="matrix" values="0 0 0 0 0 0 0 0 0 0 0 0 0 0 0 0 0 0 127 0"/>
<feOffset/>
<feGaussianBlur stdDeviation="17.5"/>
<feColorMatrix type="matrix" values="0 0 0 0 1 0 0 0 0 1 0 0 0 0 1 0 0 0 0.25 0"/>
<feBlend mode="normal" in2="BackgroundImageFix" result="effect1_dropShadow"/>
<feBlend mode="normal" in="SourceGraphic" in2="effect1_dropShadow" result="shape"/>
</filter>
</defs>
</svg>
