<svg width="77" height="67" viewBox="0 0 77 67" fill="none" xmlns="http://www.w3.org/2000/svg">
<path d="M67.0364 29.139C67.0364 13.2185 54.1303 0.312382 38.2098 0.312382C22.2893 0.312382 9.38318 13.2185 9.38318 29.139C9.38318 45.0595 22.2893 57.9656 38.2098 57.9656C54.1303 57.9656 67.0364 45.0595 67.0364 29.139ZM11.4272 29.139C11.4272 14.3474 23.4182 2.35636 38.2098 2.35636C53.0015 2.35636 64.9925 14.3474 64.9925 29.139C64.9925 43.9307 53.0015 55.9217 38.2098 55.9217C23.4182 55.9217 11.4272 43.9307 11.4272 29.139Z" fill="white" fill-opacity="0.2"/>
<g filter="url(#filter0_d)">
<path d="M18.0056 8.93496C16.7215 7.65084 14.6243 7.6412 13.4793 9.05077C10.2204 13.0628 7.97563 17.8215 6.96083 22.9232C5.73147 29.1036 6.36242 35.5098 8.77391 41.3317C11.1854 47.1535 15.2691 52.1295 20.5086 55.6305C25.7481 59.1314 31.9081 61 38.2096 61C44.5112 61 50.6712 59.1314 55.9107 55.6305C61.1502 52.1295 65.2339 47.1535 67.6454 41.3317C70.0569 35.5098 70.6878 29.1036 69.4585 22.9232C68.4437 17.8215 66.1989 13.0628 62.94 9.05077C61.795 7.6412 59.6978 7.65084 58.4137 8.93496C57.1296 10.2191 57.1495 12.2898 58.2562 13.7296C60.6153 16.7987 62.2475 20.3809 63.0084 24.2062C63.984 29.1109 63.4833 34.1948 61.5696 38.815C59.6559 43.4352 56.4151 47.3841 52.257 50.1624C48.099 52.9407 43.2105 54.4236 38.2096 54.4236C33.2088 54.4236 28.3203 52.9407 24.1623 50.1624C20.0042 47.3841 16.7634 43.4352 14.8497 38.815C12.936 34.1948 12.4352 29.1109 13.4108 24.2062C14.1717 20.381 15.804 16.7987 18.1631 13.7296C19.2698 12.2898 19.2897 10.2191 18.0056 8.93496Z" fill="#FF7152"/>
</g>
<defs>
<filter id="filter0_d" x="0.348633" y="1.98236" width="75.722" height="65.0177" filterUnits="userSpaceOnUse" color-interpolation-filters="sRGB">
<feFlood flood-opacity="0" result="BackgroundImageFix"/>
<feColorMatrix in="SourceAlpha" type="matrix" values="0 0 0 0 0 0 0 0 0 0 0 0 0 0 0 0 0 0 127 0"/>
<feMorphology radius="1" operator="erode" in="SourceAlpha" result="effect1_dropShadow"/>
<feOffset/>
<feGaussianBlur stdDeviation="3.5"/>
<feColorMatrix type="matrix" values="0 0 0 0 1 0 0 0 0 0.443137 0 0 0 0 0.321569 0 0 0 1 0"/>
<feBlend mode="normal" in2="BackgroundImageFix" result="effect1_dropShadow"/>
<feBlend mode="normal" in="SourceGraphic" in2="effect1_dropShadow" result="shape"/>
</filter>
</defs>
</svg>
