<svg width="279" height="286" viewBox="0 0 279 286" fill="none" xmlns="http://www.w3.org/2000/svg">
<g filter="url(#filter0_d)">
<path d="M139.5 35C81.8752 35 35 81.8752 35 139.5C35 197.125 81.8752 244 139.5 244C197.125 244 244 197.117 244 139.5C244 81.8834 197.125 35 139.5 35ZM139.5 227.811C90.8116 227.811 51.1889 188.197 51.1889 139.5C51.1889 90.8034 90.8116 51.1889 139.5 51.1889C188.197 51.1889 227.811 90.8034 227.811 139.5C227.811 188.197 188.188 227.811 139.5 227.811Z" fill="white"/>
</g>
<path d="M72.4678 269.4V275.682C71.9638 275.88 71.4598 275.952 70.9558 275.952C69.6238 275.952 68.8678 275.232 68.8678 273.702V269.4H67.0498V273.648C67.0498 276.204 68.4718 277.662 70.7578 277.662C71.2978 277.662 71.9278 277.572 72.4678 277.374V282.036H74.2858V269.4H72.4678ZM82.94 269.4H75.848V271.128H78.458V282H80.312V271.128H82.94V269.4ZM87.9756 282.234C90.3876 282.234 91.8276 280.632 91.8276 278.004V273.396C91.8276 270.768 90.3876 269.166 87.9756 269.166C85.5636 269.166 84.1236 270.768 84.1236 273.396V278.004C84.1236 280.632 85.5636 282.234 87.9756 282.234ZM87.9756 280.452C86.6616 280.452 85.9956 279.588 85.9956 278.004V273.396C85.9956 271.812 86.6616 270.948 87.9756 270.948C89.2716 270.948 89.9556 271.812 89.9556 273.396V278.004C89.9556 279.588 89.2716 280.452 87.9756 280.452ZM93.3295 278.148H97.7395V276.6H93.3295V278.148ZM104.913 269.4H97.8206V271.128H100.431V282H102.285V271.128H104.913V269.4ZM109.948 282.234C112.36 282.234 113.8 280.632 113.8 278.004V273.396C113.8 270.768 112.36 269.166 109.948 269.166C107.536 269.166 106.096 270.768 106.096 273.396V278.004C106.096 280.632 107.536 282.234 109.948 282.234ZM109.948 280.452C108.634 280.452 107.968 279.588 107.968 278.004V273.396C107.968 271.812 108.634 270.948 109.948 270.948C111.244 270.948 111.928 271.812 111.928 273.396V278.004C111.928 279.588 111.244 280.452 109.948 280.452ZM127.033 269.4H119.833V282H121.651V271.128H125.215V282H127.033V269.4ZM133.028 282.234C135.44 282.234 136.88 280.632 136.88 278.004V273.396C136.88 270.768 135.44 269.166 133.028 269.166C130.616 269.166 129.176 270.768 129.176 273.396V278.004C129.176 280.632 130.616 282.234 133.028 282.234ZM133.028 280.452C131.714 280.452 131.048 279.588 131.048 278.004V273.396C131.048 271.812 131.714 270.948 133.028 270.948C134.324 270.948 135.008 271.812 135.008 273.396V278.004C135.008 279.588 134.324 280.452 133.028 280.452ZM139.046 282H151.016V269.4H149.216V280.272H145.922V269.4H144.122V280.272H140.846V269.4H139.046V282ZM154.233 269.4C154.017 274.602 153.855 277.428 153.657 278.742C153.459 280.038 153.063 280.524 152.271 280.524V282.18C154.017 282.18 155.079 281.442 155.403 279.156C155.637 277.662 155.799 274.782 155.979 271.11H158.643V282H160.461V269.4H154.233ZM166.48 282.234C168.892 282.234 170.332 280.632 170.332 278.004V273.396C170.332 270.768 168.892 269.166 166.48 269.166C164.068 269.166 162.628 270.768 162.628 273.396V278.004C162.628 280.632 164.068 282.234 166.48 282.234ZM166.48 280.452C165.166 280.452 164.5 279.588 164.5 278.004V273.396C164.5 271.812 165.166 270.948 166.48 270.948C167.776 270.948 168.46 271.812 168.46 273.396V278.004C168.46 279.588 167.776 280.452 166.48 280.452ZM181.746 269.4V274.764H178.182V269.4H176.364V282H178.182V276.474H181.746V282H183.564V269.4H181.746ZM187.903 280.29V276.438H191.917V274.764H187.903V271.11H192.259V269.4H186.085V282H192.439V280.29H187.903ZM204.387 269.4H197.295V271.128H199.905V282H201.759V271.128H204.387V269.4ZM210.537 282H212.427L209.259 269.4H207.297L204.129 282H206.037L206.613 279.462H209.943L210.537 282ZM207.009 277.77L207.783 274.386C207.981 273.558 208.161 272.352 208.251 271.686H208.305C208.395 272.352 208.593 273.558 208.773 274.386L209.565 277.77H207.009ZM219.529 282H221.617L217.495 274.89L221.095 269.4H218.971L216.451 273.396L215.623 274.872V269.4H213.823V282H215.623V277.734L216.451 276.492L219.529 282Z" fill="white"/>
<rect x="91.2544" y="102.041" width="16" height="119" rx="8" transform="rotate(-46.1061 91.2544 102.041)" fill="#FF7152"/>
<rect width="16" height="119" rx="8" transform="matrix(-0.693325 -0.720625 -0.720625 0.693325 188.848 102.53)" fill="#FF7152"/>
<defs>
<filter id="filter0_d" x="0" y="0" width="279" height="279" filterUnits="userSpaceOnUse" color-interpolation-filters="sRGB">
<feFlood flood-opacity="0" result="BackgroundImageFix"/>
<feColorMatrix in="SourceAlpha" type="matrix" values="0 0 0 0 0 0 0 0 0 0 0 0 0 0 0 0 0 0 127 0"/>
<feOffset/>
<feGaussianBlur stdDeviation="17.5"/>
<feColorMatrix type="matrix" values="0 0 0 0 1 0 0 0 0 1 0 0 0 0 1 0 0 0 0.25 0"/>
<feBlend mode="normal" in2="BackgroundImageFix" result="effect1_dropShadow"/>
<feBlend mode="normal" in="SourceGraphic" in2="effect1_dropShadow" result="shape"/>
</filter>
</defs>
</svg>
